<svg width="960" height="700" viewBox="0 0 960 700" fill="none" xmlns="http://www.w3.org/2000/svg">
  <rect width="960" height="700" rx="32" fill="#FAF2E4"/>
  <rect x="48" y="48" width="404" height="272" rx="24" fill="#FFFFFF"/>
  <rect x="508" y="48" width="404" height="272" rx="24" fill="#FFFFFF"/>
  <rect x="48" y="380" width="404" height="272" rx="24" fill="#FFFFFF"/>
  <rect x="508" y="380" width="404" height="272" rx="24" fill="#FFFFFF"/>
  <rect x="80" y="84" width="340" height="148" rx="16" fill="#E8EEF4"/>
  <rect x="540" y="84" width="340" height="148" rx="16" fill="#E8EEF4"/>
  <rect x="80" y="416" width="340" height="148" rx="16" fill="#E8EEF4"/>
  <rect x="540" y="416" width="340" height="148" rx="16" fill="#E8EEF4"/>
  <path d="M98 262H278" stroke="#BA4D20" stroke-width="14" stroke-linecap="round"/>
  <path d="M98 286H236" stroke="#D6AA8B" stroke-width="14" stroke-linecap="round"/>
  <path d="M558 262H738" stroke="#BA4D20" stroke-width="14" stroke-linecap="round"/>
  <path d="M558 286H696" stroke="#D6AA8B" stroke-width="14" stroke-linecap="round"/>
  <path d="M98 594H278" stroke="#BA4D20" stroke-width="14" stroke-linecap="round"/>
  <path d="M98 618H236" stroke="#D6AA8B" stroke-width="14" stroke-linecap="round"/>
  <path d="M558 594H738" stroke="#BA4D20" stroke-width="14" stroke-linecap="round"/>
  <path d="M558 618H696" stroke="#D6AA8B" stroke-width="14" stroke-linecap="round"/>
  <circle cx="174" cy="160" r="42" fill="#BA4D20" fill-opacity="0.18"/>
  <circle cx="634" cy="160" r="42" fill="#19354F" fill-opacity="0.18"/>
  <circle cx="174" cy="492" r="42" fill="#19354F" fill-opacity="0.18"/>
  <circle cx="634" cy="492" r="42" fill="#BA4D20" fill-opacity="0.18"/>
  <text x="72" y="34" fill="#19354F" font-family="Arial, sans-serif" font-size="28" font-weight="700">Qualitative Examples / Failure Cases</text>
</svg>
